<svg width="92" height="93" viewBox="0 0 92 93" fill="none" xmlns="http://www.w3.org/2000/svg">
<path d="M56.35 62.6C57.265 62.6 58.1425 62.9635 58.7895 63.6105C59.4365 64.2575 59.8 65.135 59.8 66.05C59.8 66.965 59.4365 67.8425 58.7895 68.4895C58.1425 69.1365 57.265 69.5 56.35 69.5H35.65C34.735 69.5 33.8575 69.1365 33.2105 68.4895C32.5635 67.8425 32.2 66.965 32.2 66.05C32.2 65.135 32.5635 64.2575 33.2105 63.6105C33.8575 62.9635 34.735 62.6 35.65 62.6H56.35ZM65.55 43.05C66.465 43.05 67.3425 43.4135 67.9895 44.0605C68.6365 44.7075 69 45.585 69 46.5C69 47.415 68.6365 48.2925 67.9895 48.9395C67.3425 49.5865 66.465 49.95 65.55 49.95H26.45C25.535 49.95 24.6575 49.5865 24.0105 48.9395C23.3635 48.2925 23 47.415 23 46.5C23 45.585 23.3635 44.7075 24.0105 44.0605C24.6575 43.4135 25.535 43.05 26.45 43.05H65.55ZM74.75 23.5C75.665 23.5 76.5425 23.8635 77.1895 24.5105C77.8365 25.1575 78.2 26.035 78.2 26.95C78.2 27.865 77.8365 28.7425 77.1895 29.3895C76.5425 30.0365 75.665 30.4 74.75 30.4H17.25C16.335 30.4 15.4575 30.0365 14.8105 29.3895C14.1635 28.7425 13.8 27.865 13.8 26.95C13.8 26.035 14.1635 25.1575 14.8105 24.5105C15.4575 23.8635 16.335 23.5 17.25 23.5H74.75Z" fill="#5555C2"/>
</svg>
